<?xml version="1.0" encoding="utf-8"?>
<!DOCTYPE svg PUBLIC "-//W3C//DTD SVG 20010904//EN" "http://www.w3.org/TR/2001/REC-SVG-20010904/DTD/svg10.dtd">
<svg version="1.0" xmlns="http://www.w3.org/2000/svg" width="541px" height="241px" viewBox="0 0 1082 482" preserveAspectRatio="xMidYMid meet">
 <g fill="#000000">
  <path d="M727 239.5 l0 -142.5 8 0 8 0 0 142.5 0 142.5 -8 0 -8 0 0 -142.5z"/>
  <path d="M779 239.5 l0 -142.5 8 0 8 0 0 142.5 0 142.5 -8 0 -8 0 0 -142.5z"/>
  <path d="M149.6 345.9 c-4.9 -1.2 -7.6 -3.5 -7.6 -6.6 0 -1.9 0.5 -2.3 3 -2.3 2.3 0 3 0.5 3 1.9 0 4.1 2.3 4.6 22.5 4.6 17.6 0 19.5 -0.2 21.4 -1.9 2.6 -2.3 2.7 -4 0.3 -6.4 -1.7 -1.7 -4.3 -2 -21.8 -2.5 -10.9 -0.4 -21.2 -1 -22.9 -1.5 -6.4 -1.8 -7.2 -9.7 -1.2 -12.9 2.8 -1.6 6 -1.8 24.2 -1.8 22 0 26.5 0.7 28.5 4.6 1.6 2.9 1.2 3.9 -1.8 3.9 -2.1 0 -3.2 -0.7 -4 -2.4 -1.4 -3.1 -4.4 -3.6 -23.6 -3.6 -10.9 0 -16.9 0.4 -18.6 1.3 -2.8 1.4 -3.9 5.7 -1.8 7.4 0.8 0.7 10.2 1.5 22.9 2 25 1 26.9 1.5 26.9 8.2 0 4.9 -2.1 6.8 -9 8.1 -6.5 1.2 -35 1.1 -40.4 -0.1z"/>
  <path d="M218.7 345.9 c-7.8 -1.8 -10.7 -5.8 -10.7 -14.6 0 -6.5 2.1 -10.6 6.6 -12.9 3.3 -1.6 6.6 -1.9 21.1 -2.2 21.8 -0.4 27.9 1.1 29.8 7.6 0.5 1.9 0.3 2.2 -2.2 2.2 -2 0 -3.1 -0.7 -3.8 -2.2 -1.5 -3.5 -6.7 -4.7 -21.5 -4.7 -20.9 -0.1 -24 1.5 -24 12.2 0 5.1 0.4 6.2 2.9 8.8 l2.9 2.9 16.9 0 c17.9 0 21 -0.7 22.8 -4.8 0.7 -1.5 1.8 -2.2 3.7 -2.2 6.9 0 0.2 8.1 -8 9.9 -6.2 1.3 -31 1.3 -36.5 0z"/>
  <path d="M284.7 345.6 c-7.5 -2 -9.1 -4.2 -9.5 -12.9 -0.4 -6.7 -0.2 -7.6 2.2 -10.4 4.7 -5.5 9 -6.5 28.2 -6.1 14.1 0.2 17.5 0.6 20.7 2.2 4.1 2 6.7 6 6.7 10.1 l0 2.5 -26 0 -26 0 0 2.9 c0 8.1 2.7 9.1 23.4 9.1 17.5 0 21 -0.6 22.1 -3.9 0.4 -1.5 1.5 -2.1 3.6 -2.1 3.5 0 3.6 1 0.4 4.8 -1.5 1.8 -4.1 3.4 -6.9 4.1 -6.1 1.5 -32.9 1.3 -38.9 -0.3z m42.3 -19.1 c0 -0.9 -1.1 -2.7 -2.4 -4 -3 -3 -9.8 -3.9 -25.6 -3.3 -10.1 0.3 -12.4 0.7 -14.7 2.5 -1.6 1.1 -2.9 3 -3.1 4.2 -0.3 2.1 -0.3 2.1 22.7 2.1 20.2 0 23.1 -0.2 23.1 -1.5z"/>
  <path d="M344 331.5 l0 -15.5 3 0 c2.5 0 3 0.4 3 2.5 l0 2.6 3.1 -2.3 c2.8 -2.1 4.2 -2.3 18.2 -2.6 18.1 -0.2 23.7 1.1 27.4 6.7 2 3 2.3 4.6 2.3 13.7 l0 10.4 -3 0 -3 0 0 -10.9 c0 -10.9 0 -10.9 -3 -13.4 -3.6 -3.1 -12.1 -4.2 -25.6 -3.4 -9.4 0.5 -14.6 2.3 -15.8 5.2 -0.3 0.9 -0.6 6.4 -0.6 12.1 l0 10.4 -3 0 -3 0 0 -15.5z"/>
  <path d="M420.7 345.6 c-7.5 -2 -9.1 -4.2 -9.5 -12.9 -0.4 -6.7 -0.2 -7.6 2.2 -10.4 4.7 -5.5 9 -6.5 28.2 -6.1 14.1 0.2 17.5 0.6 20.7 2.2 4.1 2 6.7 6 6.7 10.1 l0 2.5 -26 0 -26 0 0 2.9 c0 8.1 2.7 9.1 23.4 9.1 17.5 0 21 -0.6 22.1 -3.9 0.4 -1.5 1.5 -2.1 3.6 -2.1 3.5 0 3.6 1 0.4 4.8 -1.5 1.8 -4.1 3.4 -6.9 4.1 -6.1 1.5 -32.9 1.3 -38.9 -0.3z m42.3 -19.1 c0 -0.9 -1.1 -2.7 -2.4 -4 -3 -3 -9.8 -3.9 -25.6 -3.3 -10.1 0.3 -12.4 0.7 -14.7 2.5 -1.6 1.1 -2.9 3 -3.1 4.2 -0.3 2.1 -0.3 2.1 22.7 2.1 20.2 0 23.1 -0.2 23.1 -1.5z"/>
  <path d="M486.6 345.9 c-4.9 -1.2 -7.6 -3.5 -7.6 -6.6 0 -1.9 0.5 -2.3 3 -2.3 2.3 0 3 0.5 3 1.9 0 4.1 2.3 4.6 22.5 4.6 17.6 0 19.5 -0.2 21.4 -1.9 2.6 -2.3 2.7 -4 0.3 -6.4 -1.7 -1.7 -4.3 -2 -21.8 -2.5 -10.9 -0.4 -21.2 -1 -22.9 -1.5 -6.4 -1.8 -7.2 -9.7 -1.2 -12.9 2.8 -1.6 6 -1.8 24.2 -1.8 22 0 26.5 0.7 28.5 4.6 1.6 2.9 1.2 3.9 -1.8 3.9 -2.1 0 -3.2 -0.7 -4 -2.4 -1.4 -3.1 -4.4 -3.6 -23.6 -3.6 -10.9 0 -16.9 0.4 -18.6 1.3 -2.8 1.4 -3.9 5.7 -1.8 7.4 0.8 0.7 10.2 1.5 22.9 2 25 1 26.9 1.5 26.9 8.2 0 4.9 -2.1 6.8 -9 8.1 -6.5 1.2 -35 1.1 -40.4 -0.1z"/>
  <path d="M87 273 l0 -72 7.5 0 7.5 0 0 5 0 5 3.9 -2.5 c2.1 -1.4 6.3 -3.6 9.2 -4.8 5 -2 7.4 -2.1 36.6 -2.5 20.1 -0.2 33.8 0 38.5 0.8 16.7 2.5 28.9 11.8 32.9 25 1.9 6.3 2 8.9 1.7 27.7 l-0.3 20.8 -3.3 6.7 c-3.7 7.5 -8.9 12.6 -16.7 16.2 -10 4.7 -13.9 5.1 -48.5 5.1 -35.3 0 -39 -0.5 -48.7 -6.1 -2.3 -1.3 -4.4 -2.4 -4.7 -2.4 -0.3 0 -0.6 11.3 -0.6 25 l0 25 -7.5 0 -7.5 0 0 -72z m108.9 14.6 c12.2 -5.7 14.5 -11.9 13.9 -38.6 -0.4 -19.8 -1.3 -23 -8.5 -28.9 -7.5 -6.2 -10.2 -6.6 -46.8 -6.6 -32.6 0 -33.1 0 -38.2 2.4 -6.5 2.9 -11.8 8.6 -13.4 14.3 -0.7 2.6 -1.1 11.4 -1 22.8 0.1 18 0.2 18.6 2.9 24 1.8 3.6 4.1 6.5 6.9 8.4 7.4 5.1 10.8 5.5 45.8 5.3 l32 -0.2 6.4 -2.9z"/>
  <path d="M409 253 l0 -51 7.5 0 7.5 0 0 6.2 0 6.2 4.3 -4.2 c8.1 -8 11 -8.6 44.5 -9 17.2 -0.2 32.5 0.1 37.1 0.7 22.4 3 34.6 14.1 36.8 33.9 l0.6 5.2 -7.6 0 -7.5 0 -0.7 -4.2 c-1.7 -10.5 -6.9 -16.8 -17.2 -20.9 -5.6 -2.3 -6.7 -2.4 -36.3 -2.4 -26.8 0 -31.2 0.2 -36.5 1.8 -7.7 2.4 -14.6 9.1 -16.3 16 -0.8 3 -1.2 16.1 -1.2 38.6 l0 34.1 -7.5 0 -7.5 0 0 -51z"/>
  <path d="M861.4 303 c-15 -1.6 -24.8 -6.4 -30.4 -14.8 -5.5 -8.3 -6.2 -12.7 -5.8 -36.5 0.3 -20.5 0.4 -21.4 3 -26.9 5.2 -11.2 15.5 -19.1 28.9 -22.3 9.1 -2.1 65.3 -2.1 75.4 0 14 3 23.5 9.6 28.6 20.1 2.9 5.9 3.3 7.7 3.7 17.5 l0.5 10.9 -62.8 0 -62.7 0 0.4 11.3 c0.4 12.7 2 17.1 8.2 22.5 6.8 5.9 10.3 6.3 50.8 6 l36.3 -0.3 4.3 -2.5 c5 -2.9 9.2 -9.1 9.2 -13.8 l0 -3.2 8.1 0 8.1 0 -0.6 4.8 c-2.1 14.8 -13.1 24.7 -30.1 27.2 -7.9 1.1 -62.3 1.1 -73.1 0z m87.8 -67 c-0.9 -8.5 -6.8 -16.2 -15.6 -20.2 -5 -2.3 -5.7 -2.3 -39.1 -2.3 -33.4 0 -34.1 0 -39 2.3 -2.7 1.3 -6.3 3.5 -7.9 5 -3.6 3.4 -7.6 11.7 -7.6 16 l0 3.2 54.8 -0.2 54.7 -0.3 -0.3 -3.5z"/>
  <path d="M994 232 l0 -72 8 0 8 0 0 72 0 72 -8 0 -8 0 0 -72z"/>
  <path d="M266 302.3 c-9.6 -1.6 -16.1 -5.8 -19.5 -12.6 -2.3 -4.6 -2.5 -6.2 -2.5 -17.4 0 -13.5 1.1 -17.6 5.8 -22.6 3.5 -3.7 8.4 -6.2 15 -7.6 7 -1.5 87.2 -1.5 92.5 0 2.1 0.5 5.3 2.4 7.2 4.1 l3.5 3 0 -8.2 c0 -11.6 -1.5 -16.5 -6.5 -21.6 -6.3 -6.3 -9 -6.6 -49 -6.2 -30.9 0.3 -34.3 0.5 -37.5 2.2 -5.7 3 -9 6.7 -9.6 10.8 l-0.7 3.8 -7.6 0 -7.7 0 0.6 -5.2 c0.3 -2.9 1.3 -6.7 2.2 -8.4 2.5 -4.7 8.9 -9.9 15.4 -12.5 5.9 -2.4 6 -2.4 47.9 -2.4 41.3 0 42.1 0 47.6 2.3 7.6 3 13.2 8.1 16.6 15 l2.8 5.7 0.3 39.3 0.3 39.2 -7.6 0 -7.5 0 0 -4.1 0 -4 -3.3 2.5 c-7.4 5.6 -7.1 5.6 -53.4 5.5 -23.5 -0.1 -43.9 -0.4 -45.3 -0.6z m92.4 -14.3 c6.3 -3.2 8.8 -7.8 8.8 -15.9 0 -8 -2.3 -12.5 -8.1 -15.9 l-4.6 -2.7 -42.5 0 c-39.2 0 -42.8 0.1 -46.2 1.8 -5.5 2.8 -7.1 7 -6.6 17.7 0.3 8.2 0.5 9.1 3.2 11.9 2.8 2.9 6.1 4.4 11.6 5.4 1.4 0.3 19.8 0.4 41 0.3 l38.6 -0.1 4.8 -2.5z"/>
  <path d="M579 302.3 c-9.6 -1.6 -16.1 -5.8 -19.5 -12.6 -2.3 -4.6 -2.5 -6.2 -2.5 -17.4 0 -13.5 1.1 -17.6 5.8 -22.6 3.5 -3.7 8.4 -6.2 15 -7.6 7 -1.5 87.2 -1.5 92.5 0 2.1 0.5 5.3 2.4 7.2 4.1 l3.5 3 0 -8.2 c0 -11.5 -1.5 -16.6 -6.5 -21.5 -6.4 -6.4 -8.1 -6.7 -48 -6.3 -31.9 0.3 -35.3 0.5 -38.5 2.2 -5.7 3 -9 6.7 -9.6 10.8 l-0.7 3.8 -7.6 0 -7.7 0 0.6 -5.2 c0.3 -2.9 1.3 -6.7 2.2 -8.4 2.5 -4.7 8.9 -9.9 15.4 -12.5 5.9 -2.4 6 -2.4 47.9 -2.4 41.3 0 42.1 0 47.6 2.3 7.6 3 13.2 8.1 16.6 15 l2.8 5.7 0.3 39.3 0.3 39.2 -7.6 0 -7.5 0 0 -4.1 0 -4 -3.3 2.5 c-7.4 5.6 -7.1 5.6 -53.4 5.5 -23.5 -0.1 -43.9 -0.4 -45.3 -0.6z m92.4 -14.3 c6.3 -3.2 8.8 -7.8 8.8 -15.9 0 -8 -2.3 -12.5 -8.1 -15.9 l-4.6 -2.7 -42.5 0 c-39.9 0 -42.7 0.1 -46.4 1.9 -5.4 2.7 -6.9 6.7 -6.4 17.7 0.3 8.1 0.5 9 3.2 11.8 2.8 2.9 6.1 4.4 11.6 5.4 1.4 0.3 19.8 0.4 41 0.3 l38.6 -0.1 4.8 -2.5z"/>
 </g>
</svg>